<mxfile host="app.diagrams.net" modified="2021-01-30T02:09:23.219Z" agent="5.0 (Macintosh; Intel Mac OS X 11_1_0) AppleWebKit/537.36 (KHTML, like Gecko) Chrome/87.0.4280.141 Safari/537.36" etag="qHnZ7Fxcdc1QeaDff33a" version="14.2.7" type="github">
  <diagram id="C5RBs43oDa-KdzZeNtuy" name="Page-1">
    <mxGraphModel dx="1950" dy="699" grid="1" gridSize="10" guides="1" tooltips="1" connect="1" arrows="1" fold="1" page="1" pageScale="1" pageWidth="827" pageHeight="1169" math="0" shadow="0">
      <root>
        <mxCell id="WIyWlLk6GJQsqaUBKTNV-0" />
        <mxCell id="WIyWlLk6GJQsqaUBKTNV-1" parent="WIyWlLk6GJQsqaUBKTNV-0" />
        <mxCell id="e87xvLng4OOPS5qkPSxf-1" style="edgeStyle=orthogonalEdgeStyle;rounded=0;orthogonalLoop=1;jettySize=auto;html=1;dashed=1;endArrow=none;endFill=0;" edge="1" parent="WIyWlLk6GJQsqaUBKTNV-1" source="e87xvLng4OOPS5qkPSxf-0">
          <mxGeometry relative="1" as="geometry">
            <mxPoint x="360" y="145" as="targetPoint" />
          </mxGeometry>
        </mxCell>
        <mxCell id="e87xvLng4OOPS5qkPSxf-7" style="edgeStyle=orthogonalEdgeStyle;rounded=0;orthogonalLoop=1;jettySize=auto;html=1;entryX=0.5;entryY=0;entryDx=0;entryDy=0;endArrow=classic;endFill=1;fontFamily=Times New Roman;fontSize=14;" edge="1" parent="WIyWlLk6GJQsqaUBKTNV-1" source="e87xvLng4OOPS5qkPSxf-0">
          <mxGeometry relative="1" as="geometry">
            <mxPoint x="240" y="200" as="targetPoint" />
          </mxGeometry>
        </mxCell>
        <mxCell id="e87xvLng4OOPS5qkPSxf-0" value="Начало" style="html=1;dashed=0;whitespace=wrap;shape=mxgraph.dfd.start;fontSize=14;fontFamily=Times New Roman;" vertex="1" parent="WIyWlLk6GJQsqaUBKTNV-1">
          <mxGeometry x="180" y="110" width="120" height="70" as="geometry" />
        </mxCell>
        <mxCell id="e87xvLng4OOPS5qkPSxf-2" value="" style="strokeWidth=1;html=1;shape=mxgraph.flowchart.annotation_1;align=left;pointerEvents=1;" vertex="1" parent="WIyWlLk6GJQsqaUBKTNV-1">
          <mxGeometry x="364" y="100" width="26" height="110" as="geometry" />
        </mxCell>
        <mxCell id="e87xvLng4OOPS5qkPSxf-3" value="&lt;b style=&quot;font-size: 14px;&quot;&gt;Входные данные:&lt;br style=&quot;font-size: 14px;&quot;&gt;&lt;/b&gt;S - стартовый узел&lt;br style=&quot;font-size: 14px;&quot;&gt;G - конечный узел&amp;nbsp;&lt;br style=&quot;font-size: 14px;&quot;&gt;M -&amp;nbsp; матрица пространства поиска&amp;nbsp;&lt;br style=&quot;font-size: 14px;&quot;&gt;&lt;br style=&quot;font-size: 14px;&quot;&gt;&lt;b style=&quot;font-size: 14px;&quot;&gt;Выходные данные:&lt;br style=&quot;font-size: 14px;&quot;&gt;&lt;/b&gt;P - список узлов состовляюших путь" style="text;html=1;strokeColor=none;fillColor=none;align=left;verticalAlign=middle;whiteSpace=wrap;rounded=0;fontSize=14;fontFamily=Times New Roman;" vertex="1" parent="WIyWlLk6GJQsqaUBKTNV-1">
          <mxGeometry x="390" y="100" width="230" height="105" as="geometry" />
        </mxCell>
        <mxCell id="e87xvLng4OOPS5qkPSxf-9" value="" style="edgeStyle=orthogonalEdgeStyle;rounded=0;orthogonalLoop=1;jettySize=auto;html=1;endArrow=classic;endFill=1;fontFamily=Times New Roman;fontSize=14;" edge="1" parent="WIyWlLk6GJQsqaUBKTNV-1" target="e87xvLng4OOPS5qkPSxf-8">
          <mxGeometry relative="1" as="geometry">
            <mxPoint x="240" y="260" as="sourcePoint" />
          </mxGeometry>
        </mxCell>
        <mxCell id="e87xvLng4OOPS5qkPSxf-12" style="edgeStyle=orthogonalEdgeStyle;rounded=0;orthogonalLoop=1;jettySize=auto;html=1;entryX=0.5;entryY=0;entryDx=0;entryDy=0;endArrow=classic;endFill=1;fontFamily=Times New Roman;fontSize=14;" edge="1" parent="WIyWlLk6GJQsqaUBKTNV-1" source="e87xvLng4OOPS5qkPSxf-8" target="e87xvLng4OOPS5qkPSxf-11">
          <mxGeometry relative="1" as="geometry" />
        </mxCell>
        <mxCell id="e87xvLng4OOPS5qkPSxf-8" value="Вершина G помещается в список Open" style="whiteSpace=wrap;html=1;rounded=0;fontFamily=Times New Roman;fontSize=14;strokeWidth=1;arcSize=14;" vertex="1" parent="WIyWlLk6GJQsqaUBKTNV-1">
          <mxGeometry x="160" y="300" width="160" height="60" as="geometry" />
        </mxCell>
        <mxCell id="e87xvLng4OOPS5qkPSxf-15" style="edgeStyle=orthogonalEdgeStyle;rounded=0;orthogonalLoop=1;jettySize=auto;html=1;entryX=0.5;entryY=0;entryDx=0;entryDy=0;entryPerimeter=0;endArrow=classic;endFill=1;fontFamily=Times New Roman;fontSize=14;" edge="1" parent="WIyWlLk6GJQsqaUBKTNV-1" source="e87xvLng4OOPS5qkPSxf-11" target="e87xvLng4OOPS5qkPSxf-14">
          <mxGeometry relative="1" as="geometry" />
        </mxCell>
        <mxCell id="e87xvLng4OOPS5qkPSxf-11" value="" style="verticalLabelPosition=bottom;verticalAlign=top;html=1;shape=process;whiteSpace=wrap;rounded=0;size=0.14;arcSize=6;glass=0;strokeWidth=1;fontFamily=Times New Roman;fontSize=14;" vertex="1" parent="WIyWlLk6GJQsqaUBKTNV-1">
          <mxGeometry x="100" y="400" width="280" height="60" as="geometry" />
        </mxCell>
        <mxCell id="e87xvLng4OOPS5qkPSxf-13" value="k_old := обработать_состояние( )" style="text;html=1;strokeColor=none;fillColor=none;align=center;verticalAlign=middle;whiteSpace=wrap;rounded=0;glass=0;fontFamily=Times New Roman;fontSize=14;" vertex="1" parent="WIyWlLk6GJQsqaUBKTNV-1">
          <mxGeometry x="140" y="405" width="200" height="50" as="geometry" />
        </mxCell>
        <mxCell id="e87xvLng4OOPS5qkPSxf-16" style="edgeStyle=orthogonalEdgeStyle;rounded=0;orthogonalLoop=1;jettySize=auto;html=1;entryX=1;entryY=0.5;entryDx=0;entryDy=0;endArrow=classic;endFill=1;fontFamily=Times New Roman;fontSize=14;" edge="1" parent="WIyWlLk6GJQsqaUBKTNV-1" source="e87xvLng4OOPS5qkPSxf-14" target="e87xvLng4OOPS5qkPSxf-11">
          <mxGeometry relative="1" as="geometry">
            <Array as="points">
              <mxPoint x="430" y="530" />
              <mxPoint x="430" y="430" />
            </Array>
          </mxGeometry>
        </mxCell>
        <mxCell id="e87xvLng4OOPS5qkPSxf-20" style="edgeStyle=orthogonalEdgeStyle;rounded=0;orthogonalLoop=1;jettySize=auto;html=1;entryX=0.5;entryY=0;entryDx=0;entryDy=0;endArrow=classic;endFill=1;fontFamily=Times New Roman;fontSize=14;" edge="1" parent="WIyWlLk6GJQsqaUBKTNV-1" source="e87xvLng4OOPS5qkPSxf-14" target="e87xvLng4OOPS5qkPSxf-19">
          <mxGeometry relative="1" as="geometry" />
        </mxCell>
        <mxCell id="e87xvLng4OOPS5qkPSxf-14" value="&lt;font style=&quot;font-size: 14px&quot;&gt;t(S)&amp;nbsp;&lt;span style=&quot;color: rgb(32 , 33 , 36) ; font-family: &amp;#34;arial&amp;#34; , sans-serif ; text-align: left ; background-color: rgb(255 , 255 , 255)&quot;&gt;∉ Close И k_old&amp;nbsp;&lt;/span&gt;&lt;span style=&quot;color: rgb(32 , 33 , 34) ; font-family: sans-serif&quot;&gt;≠ -1&lt;/span&gt;&lt;/font&gt;" style="strokeWidth=1;html=1;shape=mxgraph.flowchart.decision;whiteSpace=wrap;rounded=0;glass=0;fillColor=#ffffff;fontFamily=Times New Roman;fontSize=14;" vertex="1" parent="WIyWlLk6GJQsqaUBKTNV-1">
          <mxGeometry x="140" y="500" width="200" height="60" as="geometry" />
        </mxCell>
        <mxCell id="e87xvLng4OOPS5qkPSxf-17" value="да" style="text;html=1;strokeColor=none;fillColor=none;align=center;verticalAlign=middle;whiteSpace=wrap;rounded=0;glass=0;fontFamily=Times New Roman;fontSize=14;" vertex="1" parent="WIyWlLk6GJQsqaUBKTNV-1">
          <mxGeometry x="350" y="510" width="40" height="20" as="geometry" />
        </mxCell>
        <mxCell id="e87xvLng4OOPS5qkPSxf-69" style="edgeStyle=orthogonalEdgeStyle;rounded=0;orthogonalLoop=1;jettySize=auto;html=1;entryX=0.5;entryY=0;entryDx=0;entryDy=0;entryPerimeter=0;endArrow=classic;endFill=1;fontFamily=Times New Roman;fontSize=14;" edge="1" parent="WIyWlLk6GJQsqaUBKTNV-1" source="e87xvLng4OOPS5qkPSxf-19" target="e87xvLng4OOPS5qkPSxf-26">
          <mxGeometry relative="1" as="geometry" />
        </mxCell>
        <mxCell id="e87xvLng4OOPS5qkPSxf-19" value="&amp;nbsp;tmp := S" style="rounded=0;whiteSpace=wrap;html=1;glass=0;strokeWidth=1;fillColor=#ffffff;fontFamily=Times New Roman;fontSize=14;" vertex="1" parent="WIyWlLk6GJQsqaUBKTNV-1">
          <mxGeometry x="30" y="580" width="100" height="50" as="geometry" />
        </mxCell>
        <mxCell id="e87xvLng4OOPS5qkPSxf-21" value="нет" style="text;html=1;strokeColor=none;fillColor=none;align=center;verticalAlign=middle;whiteSpace=wrap;rounded=0;glass=0;fontFamily=Times New Roman;fontSize=14;" vertex="1" parent="WIyWlLk6GJQsqaUBKTNV-1">
          <mxGeometry x="100" y="510" width="40" height="20" as="geometry" />
        </mxCell>
        <mxCell id="e87xvLng4OOPS5qkPSxf-35" style="edgeStyle=orthogonalEdgeStyle;rounded=0;orthogonalLoop=1;jettySize=auto;html=1;entryX=0.5;entryY=0;entryDx=0;entryDy=0;entryPerimeter=0;endArrow=classic;endFill=1;fontFamily=Times New Roman;fontSize=14;" edge="1" parent="WIyWlLk6GJQsqaUBKTNV-1" source="e87xvLng4OOPS5qkPSxf-26" target="e87xvLng4OOPS5qkPSxf-28">
          <mxGeometry relative="1" as="geometry" />
        </mxCell>
        <mxCell id="e87xvLng4OOPS5qkPSxf-75" style="edgeStyle=orthogonalEdgeStyle;rounded=0;orthogonalLoop=1;jettySize=auto;html=1;endArrow=classic;endFill=1;fontFamily=Times New Roman;fontSize=14;" edge="1" parent="WIyWlLk6GJQsqaUBKTNV-1" source="e87xvLng4OOPS5qkPSxf-26">
          <mxGeometry relative="1" as="geometry">
            <mxPoint x="330" y="710" as="targetPoint" />
          </mxGeometry>
        </mxCell>
        <mxCell id="e87xvLng4OOPS5qkPSxf-26" value="Цикл_1&lt;br&gt;tmp&amp;nbsp;&lt;span style=&quot;color: rgb(32 , 33 , 34) ; font-family: sans-serif&quot;&gt;≠&amp;nbsp;&lt;/span&gt;G" style="strokeWidth=1;html=1;shape=mxgraph.flowchart.loop_limit;whiteSpace=wrap;rounded=0;glass=0;fillColor=#ffffff;fontFamily=Times New Roman;fontSize=14;" vertex="1" parent="WIyWlLk6GJQsqaUBKTNV-1">
          <mxGeometry x="-60" y="680" width="280" height="60" as="geometry" />
        </mxCell>
        <mxCell id="e87xvLng4OOPS5qkPSxf-36" style="edgeStyle=orthogonalEdgeStyle;rounded=0;orthogonalLoop=1;jettySize=auto;html=1;endArrow=classic;endFill=1;fontFamily=Times New Roman;fontSize=14;entryX=0.5;entryY=0;entryDx=0;entryDy=0;" edge="1" parent="WIyWlLk6GJQsqaUBKTNV-1" source="e87xvLng4OOPS5qkPSxf-28" target="e87xvLng4OOPS5qkPSxf-31">
          <mxGeometry relative="1" as="geometry">
            <mxPoint x="300" y="890" as="targetPoint" />
            <Array as="points">
              <mxPoint x="300" y="820" />
            </Array>
          </mxGeometry>
        </mxCell>
        <mxCell id="e87xvLng4OOPS5qkPSxf-45" style="edgeStyle=orthogonalEdgeStyle;rounded=0;orthogonalLoop=1;jettySize=auto;html=1;entryX=0.5;entryY=0;entryDx=0;entryDy=0;endArrow=classic;endFill=1;fontFamily=Times New Roman;fontSize=14;" edge="1" parent="WIyWlLk6GJQsqaUBKTNV-1" source="e87xvLng4OOPS5qkPSxf-28" target="e87xvLng4OOPS5qkPSxf-43">
          <mxGeometry relative="1" as="geometry" />
        </mxCell>
        <mxCell id="e87xvLng4OOPS5qkPSxf-28" value="Обнаружено препятствие" style="strokeWidth=1;html=1;shape=mxgraph.flowchart.decision;whiteSpace=wrap;rounded=0;glass=0;fillColor=#ffffff;fontFamily=Times New Roman;fontSize=14;" vertex="1" parent="WIyWlLk6GJQsqaUBKTNV-1">
          <mxGeometry x="-20" y="790" width="200" height="60" as="geometry" />
        </mxCell>
        <mxCell id="e87xvLng4OOPS5qkPSxf-30" value="Для всех вершин m&lt;sub&gt;i &lt;/sub&gt;из M&lt;br&gt;m&lt;sub&gt;i&lt;/sub&gt;.t :=&amp;nbsp; New и m&lt;sub&gt;i&lt;/sub&gt;.h := 0&amp;nbsp;" style="rounded=0;whiteSpace=wrap;html=1;absoluteArcSize=1;arcSize=14;strokeWidth=1;fontFamily=Times New Roman;fontSize=14;align=center;" vertex="1" parent="WIyWlLk6GJQsqaUBKTNV-1">
          <mxGeometry x="160" y="200" width="180" height="60" as="geometry" />
        </mxCell>
        <mxCell id="e87xvLng4OOPS5qkPSxf-57" style="edgeStyle=orthogonalEdgeStyle;rounded=0;orthogonalLoop=1;jettySize=auto;html=1;entryX=0.5;entryY=0;entryDx=0;entryDy=0;entryPerimeter=0;endArrow=classic;endFill=1;fontFamily=Times New Roman;fontSize=14;" edge="1" parent="WIyWlLk6GJQsqaUBKTNV-1" source="e87xvLng4OOPS5qkPSxf-31" target="e87xvLng4OOPS5qkPSxf-55">
          <mxGeometry relative="1" as="geometry" />
        </mxCell>
        <mxCell id="e87xvLng4OOPS5qkPSxf-31" value="" style="verticalLabelPosition=bottom;verticalAlign=top;html=1;shape=process;whiteSpace=wrap;rounded=0;size=0.14;arcSize=6;glass=0;strokeWidth=1;fontFamily=Times New Roman;fontSize=14;" vertex="1" parent="WIyWlLk6GJQsqaUBKTNV-1">
          <mxGeometry x="160" y="910" width="280" height="60" as="geometry" />
        </mxCell>
        <mxCell id="e87xvLng4OOPS5qkPSxf-32" value="k_old := модифицировать_стоимость( )" style="text;html=1;strokeColor=none;fillColor=none;align=center;verticalAlign=middle;whiteSpace=wrap;rounded=0;glass=0;fontFamily=Times New Roman;fontSize=14;" vertex="1" parent="WIyWlLk6GJQsqaUBKTNV-1">
          <mxGeometry x="200" y="915" width="200" height="50" as="geometry" />
        </mxCell>
        <mxCell id="e87xvLng4OOPS5qkPSxf-34" value="да" style="text;html=1;strokeColor=none;fillColor=none;align=center;verticalAlign=middle;whiteSpace=wrap;rounded=0;glass=0;fontFamily=Times New Roman;fontSize=14;" vertex="1" parent="WIyWlLk6GJQsqaUBKTNV-1">
          <mxGeometry x="180" y="800" width="40" height="20" as="geometry" />
        </mxCell>
        <mxCell id="e87xvLng4OOPS5qkPSxf-70" style="edgeStyle=orthogonalEdgeStyle;rounded=0;orthogonalLoop=1;jettySize=auto;html=1;entryX=0.5;entryY=1;entryDx=0;entryDy=0;entryPerimeter=0;endArrow=classic;endFill=1;fontFamily=Times New Roman;fontSize=14;" edge="1" parent="WIyWlLk6GJQsqaUBKTNV-1" source="e87xvLng4OOPS5qkPSxf-43" target="e87xvLng4OOPS5qkPSxf-68">
          <mxGeometry relative="1" as="geometry">
            <Array as="points">
              <mxPoint x="-110" y="1230" />
              <mxPoint x="90" y="1230" />
            </Array>
          </mxGeometry>
        </mxCell>
        <mxCell id="e87xvLng4OOPS5qkPSxf-43" value="Перейти к следующей вершине" style="rounded=0;whiteSpace=wrap;html=1;glass=0;strokeWidth=1;fillColor=#ffffff;fontFamily=Times New Roman;fontSize=14;" vertex="1" parent="WIyWlLk6GJQsqaUBKTNV-1">
          <mxGeometry x="-160" y="1045" width="100" height="50" as="geometry" />
        </mxCell>
        <mxCell id="e87xvLng4OOPS5qkPSxf-46" value="нет" style="text;html=1;strokeColor=none;fillColor=none;align=center;verticalAlign=middle;whiteSpace=wrap;rounded=0;glass=0;fontFamily=Times New Roman;fontSize=14;" vertex="1" parent="WIyWlLk6GJQsqaUBKTNV-1">
          <mxGeometry x="-70" y="800" width="40" height="20" as="geometry" />
        </mxCell>
        <mxCell id="e87xvLng4OOPS5qkPSxf-61" style="edgeStyle=orthogonalEdgeStyle;rounded=0;orthogonalLoop=1;jettySize=auto;html=1;entryX=0.5;entryY=1;entryDx=0;entryDy=0;entryPerimeter=0;endArrow=classic;endFill=1;fontFamily=Times New Roman;fontSize=14;" edge="1" parent="WIyWlLk6GJQsqaUBKTNV-1" source="e87xvLng4OOPS5qkPSxf-50" target="e87xvLng4OOPS5qkPSxf-60">
          <mxGeometry relative="1" as="geometry" />
        </mxCell>
        <mxCell id="e87xvLng4OOPS5qkPSxf-50" value="" style="verticalLabelPosition=bottom;verticalAlign=top;html=1;shape=process;whiteSpace=wrap;rounded=0;size=0.14;arcSize=6;glass=0;strokeWidth=1;fontFamily=Times New Roman;fontSize=14;" vertex="1" parent="WIyWlLk6GJQsqaUBKTNV-1">
          <mxGeometry x="160" y="1145" width="280" height="60" as="geometry" />
        </mxCell>
        <mxCell id="e87xvLng4OOPS5qkPSxf-51" value="k_old := обработать_состояние( )" style="text;html=1;strokeColor=none;fillColor=none;align=center;verticalAlign=middle;whiteSpace=wrap;rounded=0;glass=0;fontFamily=Times New Roman;fontSize=14;" vertex="1" parent="WIyWlLk6GJQsqaUBKTNV-1">
          <mxGeometry x="200" y="1150" width="200" height="50" as="geometry" />
        </mxCell>
        <mxCell id="e87xvLng4OOPS5qkPSxf-59" style="edgeStyle=orthogonalEdgeStyle;rounded=0;orthogonalLoop=1;jettySize=auto;html=1;entryX=0.5;entryY=0;entryDx=0;entryDy=0;endArrow=classic;endFill=1;fontFamily=Times New Roman;fontSize=14;" edge="1" parent="WIyWlLk6GJQsqaUBKTNV-1" source="e87xvLng4OOPS5qkPSxf-55" target="e87xvLng4OOPS5qkPSxf-50">
          <mxGeometry relative="1" as="geometry" />
        </mxCell>
        <mxCell id="e87xvLng4OOPS5qkPSxf-64" style="edgeStyle=orthogonalEdgeStyle;rounded=0;orthogonalLoop=1;jettySize=auto;html=1;entryX=1;entryY=0.5;entryDx=0;entryDy=0;endArrow=classic;endFill=1;fontFamily=Times New Roman;fontSize=14;" edge="1" parent="WIyWlLk6GJQsqaUBKTNV-1" source="e87xvLng4OOPS5qkPSxf-55" target="e87xvLng4OOPS5qkPSxf-43">
          <mxGeometry relative="1" as="geometry" />
        </mxCell>
        <mxCell id="e87xvLng4OOPS5qkPSxf-55" value="Цикл_2&lt;br&gt;k_old&amp;nbsp;&lt;span style=&quot;color: rgb(32 , 33 , 34) ; font-family: sans-serif&quot;&gt;≠&lt;/span&gt;&amp;nbsp;-1" style="strokeWidth=1;html=1;shape=mxgraph.flowchart.loop_limit;whiteSpace=wrap;rounded=0;glass=0;fillColor=#ffffff;fontFamily=Times New Roman;fontSize=14;" vertex="1" parent="WIyWlLk6GJQsqaUBKTNV-1">
          <mxGeometry x="160" y="1040" width="280" height="60" as="geometry" />
        </mxCell>
        <mxCell id="e87xvLng4OOPS5qkPSxf-63" style="edgeStyle=orthogonalEdgeStyle;rounded=0;orthogonalLoop=1;jettySize=auto;html=1;entryX=1;entryY=0.5;entryDx=0;entryDy=0;entryPerimeter=0;endArrow=classic;endFill=1;fontFamily=Times New Roman;fontSize=14;" edge="1" parent="WIyWlLk6GJQsqaUBKTNV-1" source="e87xvLng4OOPS5qkPSxf-60" target="e87xvLng4OOPS5qkPSxf-55">
          <mxGeometry relative="1" as="geometry">
            <Array as="points">
              <mxPoint x="490" y="1280" />
              <mxPoint x="490" y="1070" />
            </Array>
          </mxGeometry>
        </mxCell>
        <mxCell id="e87xvLng4OOPS5qkPSxf-60" value="" style="strokeWidth=1;html=1;shape=mxgraph.flowchart.loop_limit;whiteSpace=wrap;rounded=0;glass=0;fillColor=#ffffff;fontFamily=Times New Roman;fontSize=14;direction=west;" vertex="1" parent="WIyWlLk6GJQsqaUBKTNV-1">
          <mxGeometry x="160" y="1250" width="280" height="60" as="geometry" />
        </mxCell>
        <mxCell id="e87xvLng4OOPS5qkPSxf-65" value="Цикл_2&lt;br&gt;" style="text;html=1;strokeColor=none;fillColor=none;align=center;verticalAlign=middle;whiteSpace=wrap;rounded=0;glass=0;fontFamily=Times New Roman;fontSize=14;" vertex="1" parent="WIyWlLk6GJQsqaUBKTNV-1">
          <mxGeometry x="255" y="1270" width="90" height="20" as="geometry" />
        </mxCell>
        <mxCell id="e87xvLng4OOPS5qkPSxf-71" style="edgeStyle=orthogonalEdgeStyle;rounded=0;orthogonalLoop=1;jettySize=auto;html=1;entryX=0;entryY=0.5;entryDx=0;entryDy=0;entryPerimeter=0;endArrow=classic;endFill=1;fontFamily=Times New Roman;fontSize=14;" edge="1" parent="WIyWlLk6GJQsqaUBKTNV-1" source="e87xvLng4OOPS5qkPSxf-68" target="e87xvLng4OOPS5qkPSxf-26">
          <mxGeometry relative="1" as="geometry">
            <Array as="points">
              <mxPoint x="-210" y="1430" />
              <mxPoint x="-210" y="710" />
            </Array>
          </mxGeometry>
        </mxCell>
        <mxCell id="e87xvLng4OOPS5qkPSxf-68" value="" style="strokeWidth=1;html=1;shape=mxgraph.flowchart.loop_limit;whiteSpace=wrap;rounded=0;glass=0;fillColor=#ffffff;fontFamily=Times New Roman;fontSize=14;direction=west;" vertex="1" parent="WIyWlLk6GJQsqaUBKTNV-1">
          <mxGeometry x="-50" y="1400" width="280" height="60" as="geometry" />
        </mxCell>
        <mxCell id="e87xvLng4OOPS5qkPSxf-74" value="Цикл_1" style="text;html=1;strokeColor=none;fillColor=none;align=center;verticalAlign=middle;whiteSpace=wrap;rounded=0;glass=0;fontFamily=Times New Roman;fontSize=14;" vertex="1" parent="WIyWlLk6GJQsqaUBKTNV-1">
          <mxGeometry x="45" y="1420" width="90" height="20" as="geometry" />
        </mxCell>
        <mxCell id="e87xvLng4OOPS5qkPSxf-76" value="Конец" style="html=1;dashed=0;whitespace=wrap;shape=mxgraph.dfd.start;fontSize=14;fontFamily=Times New Roman;" vertex="1" parent="WIyWlLk6GJQsqaUBKTNV-1">
          <mxGeometry x="330" y="675" width="120" height="70" as="geometry" />
        </mxCell>
      </root>
    </mxGraphModel>
  </diagram>
</mxfile>
